<svg width="149" height="168" viewBox="0 0 149 168" fill="none" xmlns="http://www.w3.org/2000/svg">
<path d="M95.3333 2.28912C89.3333 7.48912 80.6667 20.0225 74.8 32.1558C69.8667 42.5558 67.8667 45.3558 64 47.3558C43.4667 58.1558 26.9333 74.2891 17.7333 92.5558C14 99.6225 10.6667 113.222 9.73333 124.156C9.06667 131.622 8.53333 133.222 6.53333 133.222C2.53333 133.222 0 134.689 0 137.222C0 140.289 20.5333 166.156 23.7333 167.089C25.2 167.622 27.3333 167.622 28.5333 167.089C30.8 166.156 31.4667 164.422 32.6667 153.622C33.0667 149.889 35.2 142.822 37.4667 137.889C40.6667 130.956 41.0667 128.556 39.8667 127.089C38.1333 124.956 33.3333 124.556 33.3333 126.689C33.3333 127.356 32.8 127.756 32.2667 127.356C31.7333 127.089 29.8667 128.822 28.1333 131.356C22.8 138.956 22 137.622 22.5333 121.889C23.0667 105.356 29.8667 90.9558 43.8667 77.0891C53.4667 67.4891 64 60.2891 65.8667 62.1558C66.2667 62.6891 66.6667 65.2225 66.6667 68.0225C66.6667 79.6225 75.4667 94.6891 86 101.222C97.8667 108.556 114.267 109.356 126.933 103.356C143.867 95.3558 152.533 76.1558 146.267 60.9558C139.6 45.0891 121.467 37.2225 95.7333 39.2225C88.8 39.6225 85.3333 39.4891 85.3333 38.5558C85.3333 35.7558 93.6 21.7558 100.533 12.6891C105.733 5.88913 106.533 2.02246 103.2 0.689133C100 -0.51088 98.2667 -0.244202 95.3333 2.28912ZM96.6667 11.6225C90.1333 19.4891 77.3333 42.5558 77.3333 46.2891C77.3333 46.9558 79.7333 46.6891 83.0667 45.4891C86.9333 44.0225 93.4667 43.3558 104 43.3558C117.467 43.2225 120.267 43.6225 126.4 46.4225C146.667 55.4891 150.533 77.4891 134.667 93.3558C115.733 112.289 81.0667 103.889 72.6667 78.4225C71.2 74.1558 70.6667 68.6891 70.9333 62.5558C71.2 57.3558 71.2 53.2225 70.9333 53.2225C68.9333 53.2225 57.4667 60.2891 49.7333 66.1558C36.6667 76.0225 25.8667 90.5558 21.4667 104.022C17.0667 117.756 17.2 135.622 21.8667 148.956L23.7333 153.889L24.6667 149.889C26.5333 141.222 29.6 134.822 33.3333 131.222C38.1333 126.556 40.1333 127.622 36 132.822C31.3333 138.822 29.2 145.222 28.4 155.489C28 160.822 27.2 165.222 26.5333 165.222C26 165.222 21.7333 160.289 16.9333 154.156C12.2667 148.156 7.06667 142.022 5.46667 140.689C2.26667 137.756 1.86667 135.889 4.53333 135.889C5.6 135.889 9.2 139.089 12.6667 142.822L18.8 149.889L16.5333 143.889C15.0667 139.889 14.2667 133.622 14.2667 125.222C14.2667 107.089 20 92.1558 33.2 76.0225C39.6 68.1558 54.5333 56.6891 64.8 51.8891C69.4667 49.6225 73.3333 47.0891 73.3333 46.1558C73.3333 45.2225 76.2667 38.5558 79.8667 31.2225C86.4 18.0225 100.133 0.289124 102.8 1.88913C103.333 2.28912 100.667 6.68913 96.6667 11.6225Z" fill="#40E0D0"/>
<path d="M85.3332 48.6891C81.3332 49.7557 77.1999 51.6224 76.3999 52.8224C74.2665 55.6224 74.1332 70.5557 76.1332 77.3557C81.0665 93.6224 101.467 103.489 119.6 98.4224C128.133 96.1557 137.467 86.8224 139.867 78.4224C143.467 65.7557 135.733 53.4891 121.467 48.8224C112.8 46.0224 95.5999 46.0224 85.3332 48.6891ZM118 52.0224C135.2 56.6891 141.467 70.8224 132.133 84.5557C127.6 91.2224 120.267 94.8224 110 95.4891C103.2 96.0224 100.933 95.4891 94.6665 92.2891C83.9999 86.8224 79.7332 80.1557 78.9332 67.6224C78.3999 59.3557 78.6665 57.6224 80.7999 55.6224C85.8665 51.2224 107.2 49.0891 118 52.0224Z" fill="#40E0D0"/>
</svg>
