<svg width="42" height="60" viewBox="0 0 42 60" fill="none" xmlns="http://www.w3.org/2000/svg">
<path d="M28.2917 6H28.3062H28.2917ZM28.2917 6L21 24L35.5833 32.694L13.7083 54L21 36L6.41666 27.3L28.2917 6ZM28.2917 0C26.6525 0.036 25.2904 0.657 24.2696 1.653L2.40332 22.938C1.06749 24.243 0.405407 26.115 0.624157 27.996C0.834157 29.874 1.89874 31.542 3.48832 32.49L13.6442 38.553L8.31832 51.696C7.26249 54.309 8.12583 57.333 10.395 58.944C11.3983 59.652 12.5504 60.006 13.7054 60.006C15.1579 60.006 16.6017 59.448 17.7158 58.362L39.5908 37.053C40.9267 35.751 41.5887 33.879 41.37 31.998C41.1571 30.117 40.0925 28.449 38.5058 27.504L28.35 21.45L33.5679 8.571C33.9267 7.791 34.1279 6.918 34.1279 6C34.1279 2.694 31.5321 0.012 28.2917 0Z" fill="#40E0D0"/>
</svg>
