<svg width="33" height="36" viewBox="0 0 33 36" fill="none" xmlns="http://www.w3.org/2000/svg">
<path d="M26.134 14.9122V17.8232C26.134 20.5254 25.1287 23.117 23.3391 25.0277C21.5495 26.9385 19.1222 28.0119 16.5913 28.0119M16.5913 28.0119C14.0605 28.0119 11.6332 26.9385 9.84364 25.0277C8.05403 23.117 7.04865 20.5254 7.04865 17.8232V14.9122M16.5913 28.0119V33.834M11.1384 33.834H22.0443M16.5913 1.81244C15.5067 1.81244 14.4664 2.27249 13.6995 3.09138C12.9325 3.91027 12.5016 5.02093 12.5016 6.17902V17.8232C12.5016 18.9813 12.9325 20.092 13.6995 20.9109C14.4664 21.7298 15.5067 22.1898 16.5913 22.1898C17.676 22.1898 18.7162 21.7298 19.4832 20.9109C20.2502 20.092 20.6811 18.9813 20.6811 17.8232V6.17902C20.6811 5.02093 20.2502 3.91027 19.4832 3.09138C18.7162 2.27249 17.676 1.81244 16.5913 1.81244Z" stroke="white" stroke-linecap="round" stroke-linejoin="round"/>
</svg>
