<svg width="35" height="48" viewBox="0 0 35 48" fill="none" xmlns="http://www.w3.org/2000/svg">
<path d="M34.7924 12.6918C34.7924 13.4121 34.5036 14.1029 33.9896 14.6122C33.4757 15.1215 32.7785 15.4077 32.0516 15.4077H25.6564C25.652 19.248 24.1106 22.9298 21.3702 25.6453C18.6298 28.3608 14.9142 29.8883 11.0387 29.8926H9.90564L24.7593 43.2732C25.0259 43.5131 25.2421 43.8026 25.3957 44.1253C25.5493 44.4481 25.6373 44.7976 25.6545 45.154C25.6717 45.5104 25.6179 45.8666 25.4961 46.2024C25.3743 46.5382 25.187 46.8469 24.9448 47.1109C24.7026 47.3749 24.4102 47.589 24.0845 47.741C23.7587 47.893 23.4059 47.9799 23.0463 47.9967C22.6866 48.0136 22.3271 47.9601 21.9883 47.8392C21.6496 47.7183 21.3381 47.5325 21.0719 47.2923L0.972568 29.1862C0.563266 28.8175 0.276146 28.3346 0.148953 27.8012C0.0217599 27.2677 0.0604471 26.7086 0.259929 26.1973C0.459411 25.686 0.81035 25.2465 1.26661 24.9366C1.72288 24.6267 2.26311 24.4608 2.81628 24.4608H11.0387C13.4609 24.458 15.7831 23.5033 17.4958 21.8062C19.2086 20.109 20.172 17.8079 20.1748 15.4077H2.81628C2.08938 15.4077 1.39224 15.1216 0.878236 14.6123C0.364233 14.1029 0.07547 13.4121 0.07547 12.6918C0.07547 11.9715 0.364233 11.2807 0.878236 10.7714C1.39224 10.262 2.08938 9.9759 2.81628 9.9759H18.3425C17.4925 8.85174 16.3899 7.93922 15.1222 7.31067C13.8544 6.68212 12.4563 6.35481 11.0387 6.35468H2.81628C2.08938 6.35468 1.39224 6.06854 0.878236 5.55921C0.364233 5.04987 0.07547 4.35907 0.07547 3.63877C0.07547 2.91846 0.364233 2.22766 0.878236 1.71832C1.39224 1.20899 2.08938 0.922852 2.81628 0.922852H32.0516C32.7785 0.922852 33.4757 1.20899 33.9897 1.71832C34.5037 2.22766 34.7924 2.91846 34.7924 3.63877C34.7924 4.35907 34.5037 5.04987 33.9897 5.55921C33.4757 6.06854 32.7785 6.35468 32.0516 6.35468H22.4376C23.3274 7.45197 24.0511 8.67185 24.586 9.9759H32.0516C32.7785 9.97593 33.4757 10.2621 33.9896 10.7714C34.5036 11.2807 34.7924 11.9715 34.7924 12.6918Z" fill="#40E0D0"/>
</svg>
