<svg width="52" height="49" viewBox="0 0 52 49" fill="none" xmlns="http://www.w3.org/2000/svg">
<path d="M26 3.0625L6.5 9.1875V27.5625C6.5 37.7118 15.2293 45.9375 26 45.9375C36.7707 45.9375 45.5 37.7118 45.5 27.5625V9.1875L26 3.0625ZM41.8438 27.5625C41.8438 35.8073 34.7496 42.4922 26 42.4922C17.2504 42.4922 10.1562 35.8073 10.1562 27.5625V11.7715L26 6.50781L41.8438 11.7715V27.5625Z" fill="#40E0D0"/>
<path d="M19.2156 22.7342C19.0461 22.5738 18.8447 22.4465 18.6229 22.3596C18.4012 22.2728 18.1634 22.2281 17.9232 22.2281C17.683 22.2281 17.4452 22.2728 17.2234 22.3596C17.0016 22.4465 16.8002 22.5738 16.6308 22.7342C16.4606 22.8938 16.3255 23.0836 16.2334 23.2926C16.1412 23.5016 16.0938 23.7257 16.0938 23.952C16.0938 24.1783 16.1412 24.4024 16.2334 24.6114C16.3255 24.8204 16.4606 25.0101 16.6308 25.1698L23.2019 31.3618L23.3085 31.4623C23.4688 31.6136 23.6592 31.7336 23.8687 31.8155C24.0783 31.8974 24.3029 31.9396 24.5298 31.9396C24.7567 31.9396 24.9813 31.8974 25.1909 31.8155C25.4005 31.7336 25.5908 31.6136 25.7511 31.4623L37.1007 20.7675C37.2613 20.6164 37.3887 20.437 37.4756 20.2396C37.5625 20.0421 37.6073 19.8304 37.6073 19.6166C37.6073 19.4028 37.5625 19.1912 37.4756 18.9937C37.3887 18.7962 37.2613 18.6168 37.1007 18.4658L36.9585 18.3318C36.7983 18.1805 36.6079 18.0605 36.3983 17.9786C36.1888 17.8966 35.9641 17.8545 35.7372 17.8545C35.5104 17.8545 35.2857 17.8966 35.0762 17.9786C34.8666 18.0605 34.6762 18.1805 34.516 18.3318L24.5273 27.7394L19.2156 22.7342Z" fill="#40E0D0"/>
</svg>
