<svg width="52" height="41" viewBox="0 0 52 41" fill="none" xmlns="http://www.w3.org/2000/svg">
<path d="M45.383 18.8672C45.2959 14.5834 43.6163 10.4343 40.5847 7.16967C36.8927 3.19087 31.5653 0.908691 25.9701 0.908691C20.3658 0.908691 15.0397 3.18597 11.3555 7.15619C8.29399 10.4551 6.6365 14.6544 6.5806 18.9787C2.782 19.5912 -0.0286039 22.5814 -0.0806039 26.2294C-0.0962039 26.2809 -0.104004 26.3348 -0.104004 26.3887C-0.104004 30.5721 3.4736 33.9751 7.8715 33.9751H13.7722C16.445 37.6869 20.9573 40.1001 25.9701 40.1001C33.3112 40.1001 39.5889 34.9294 40.5678 28.0718L41.5532 21.1714C42.159 16.9354 40.7927 12.6601 37.8066 9.44327C34.8205 6.22642 30.5071 4.38034 25.9714 4.38034C21.4357 4.38034 17.121 6.22519 14.1362 9.44327C11.1514 12.6613 9.7812 16.9354 10.387 21.1714L11.3724 28.0718C11.6116 29.7501 12.1732 31.3254 12.9844 32.7501H10.2947C9.6629 31.4112 9.2235 29.9424 8.9999 28.3732L8.0145 21.4752C7.9313 20.8946 7.8858 20.3139 7.8663 19.7345C7.9144 19.6389 7.9469 19.536 7.9352 19.4221C7.9287 19.3498 7.9014 19.2837 7.8702 19.2224C7.865 15.1077 9.4224 11.0982 12.3318 7.96347C15.7703 4.25907 20.7402 2.13492 25.9688 2.13492C31.1909 2.13492 36.1608 4.26397 39.6058 7.97694C42.4918 11.086 44.0635 15.0538 44.0843 19.1367C44.0531 19.2016 44.031 19.2751 44.0245 19.3523C44.0141 19.4601 44.0362 19.5642 44.0804 19.6561C44.0635 20.2723 44.0115 20.8897 43.9244 21.5071L42.939 28.4418C42.6725 30.3111 42.1499 32.0384 41.5402 33.0625C41.4284 33.2524 41.4297 33.4839 41.5467 33.6725C41.6637 33.86 41.8769 33.9751 42.1083 33.9751H44.1298C48.4692 33.9751 52 30.5635 52 26.3005C52 22.5508 49.1998 19.4589 45.383 18.8672ZM12.6594 27.9077L11.674 21.0085C11.1202 17.1228 12.3721 13.2016 15.1125 10.2505C17.8503 7.29952 21.8075 5.60657 25.9701 5.60657C30.1327 5.60657 34.0886 7.29952 36.8277 10.2505C39.5668 13.2028 40.8187 17.1228 40.2662 21.0085L39.2808 27.9089C38.3851 34.1601 32.6638 38.8751 25.9701 38.8751C21.7165 38.8751 17.8607 36.9678 15.3816 33.9751H19.5C19.5234 33.9751 19.5416 33.9653 19.5637 33.9629C19.8614 35.3643 21.1757 36.4251 22.75 36.4251H27.95C29.7427 36.4251 31.2 35.0507 31.2 33.3626C31.2 31.6746 29.7427 30.3001 27.95 30.3001H22.75C21.1757 30.3001 19.8614 31.361 19.5637 32.7624C19.5416 32.7599 19.5234 32.7501 19.5 32.7501H14.4911C13.5577 31.3034 12.9116 29.6705 12.6594 27.9077ZM20.8 33.3626C20.8 32.3495 21.6749 31.5251 22.75 31.5251H27.95C29.0251 31.5251 29.9 32.3495 29.9 33.3626C29.9 34.3757 29.0251 35.2001 27.95 35.2001H22.75C21.6749 35.2001 20.8 34.3757 20.8 33.3626ZM8.8868 32.7501H7.8715C4.2263 32.7501 1.2532 29.951 1.1973 26.4891C1.2103 26.4389 1.2181 26.3875 1.2181 26.336C1.2181 23.3078 3.4931 20.8039 6.6066 20.2159C6.6352 20.69 6.6599 21.1641 6.7275 21.6394L7.7129 28.5373C7.9248 30.0306 8.3252 31.4394 8.8868 32.7501ZM44.1285 32.7501H43.1314C43.6124 31.6268 44.0063 30.1531 44.226 28.6047L45.2114 21.67C45.2868 21.1494 45.3375 20.6275 45.3635 20.1081C48.4523 20.6777 50.7 23.2294 50.7 26.3703C50.7 29.8885 47.7516 32.7501 44.1285 32.7501Z" fill="#40E0D0"/>
</svg>
