<svg width="39" height="42" viewBox="0 0 39 42" fill="none" xmlns="http://www.w3.org/2000/svg">
<path fill-rule="evenodd" clip-rule="evenodd" d="M14.8384 5.39046C14.7496 4.59485 14.1772 4 13.5 4C12.8227 4 12.2503 4.59474 12.1616 5.39046L12.1601 5.40326L12.1539 5.45621C12.148 5.50456 12.1388 5.5785 12.126 5.67518C12.1005 5.86867 12.0608 6.15259 12.0051 6.50437C11.8935 7.20978 11.7196 8.17858 11.4705 9.23331C10.9521 11.4298 10.1813 13.6705 9.1704 14.8686C8.15951 16.0667 6.2689 16.9803 4.41561 17.5947C3.52567 17.8899 2.70825 18.096 2.11306 18.2283C1.81625 18.2942 1.57669 18.3413 1.41344 18.3715C1.33186 18.3867 1.26947 18.3976 1.22868 18.4046L1.184 18.412L1.17439 18.4136L1.17303 18.4138C0.501728 18.519 0 19.1974 0 20C0 20.8027 0.501809 21.4811 1.1732 21.5862L1.184 21.588L1.22868 21.5954C1.26947 21.6024 1.33186 21.6133 1.41344 21.6285C1.57669 21.6587 1.81625 21.7058 2.11306 21.7717C2.70825 21.904 3.52567 22.1101 4.41561 22.4053C6.2689 23.0197 8.15951 23.9333 9.1704 25.1314C10.1813 26.3294 10.9521 28.5702 11.4705 30.7667C11.7196 31.8214 11.8935 32.7902 12.0051 33.4957C12.0608 33.8474 12.1005 34.1314 12.126 34.3248C12.1388 34.4214 12.148 34.4954 12.1539 34.5438L12.1601 34.5968L12.1615 34.6082C12.2502 35.4038 12.8227 36 13.5 36C14.1773 36 14.7497 35.4053 14.8384 34.6096L14.8399 34.5968L14.8461 34.5438C14.852 34.4954 14.8612 34.4214 14.874 34.3248C14.8995 34.1314 14.9392 33.8474 14.9949 33.4957C15.1065 32.7902 15.2804 31.8214 15.5295 30.7667C16.0479 28.5702 16.8187 26.3294 17.8296 25.1314C18.8405 23.9333 20.7311 23.0197 22.5844 22.4053C23.4743 22.1101 24.2918 21.904 24.887 21.7717C25.1837 21.7058 25.4233 21.6587 25.5865 21.6285C25.6681 21.6133 25.7305 21.6024 25.7714 21.5954L25.816 21.588L25.8256 21.5864C26.497 21.4813 27 20.8027 27 20C27 19.1973 26.4982 18.5189 25.8268 18.4138L25.816 18.412L25.7714 18.4046C25.7305 18.3976 25.6681 18.3867 25.5865 18.3715C25.4233 18.3413 25.1837 18.2942 24.887 18.2283C24.2918 18.096 23.4743 17.8899 22.5844 17.5947C20.7311 16.9803 18.8405 16.0667 17.8296 14.8686C16.8187 13.6705 16.0479 11.4298 15.5295 9.23331C15.2804 8.17858 15.1065 7.20978 14.9949 6.50437C14.9392 6.15259 14.8995 5.86867 14.874 5.67518C14.8612 5.5785 14.852 5.50456 14.8461 5.45621L14.8399 5.40326L14.8384 5.39046ZM20.0775 20C18.5819 19.3485 17.0128 18.4261 15.9204 17.1314C14.828 15.8367 14.0497 13.977 13.5 12.2044C12.9503 13.977 12.172 15.8367 11.0796 17.1314C9.98719 18.4261 8.41811 19.3485 6.92248 20C8.41811 20.6515 9.98719 21.5739 11.0796 22.8686C12.172 24.1634 12.9503 26.023 13.5 27.7955C14.0497 26.023 14.828 24.1634 15.9204 22.8686C17.0128 21.5739 18.5819 20.6515 20.0775 20Z" fill="url(#paint0_linear_395_2260)"/>
<path fill-rule="evenodd" clip-rule="evenodd" d="M33.5948 27.6518C33.5554 27.2788 33.301 27 33 27C32.699 27 32.4446 27.2788 32.4052 27.6518L32.4045 27.6578L32.4017 27.6826C32.3991 27.7053 32.395 27.7399 32.3893 27.7852C32.378 27.8759 32.3603 28.009 32.3356 28.1739C32.286 28.5046 32.2087 28.9587 32.098 29.4531C31.8676 30.4827 31.525 31.5331 31.0757 32.0947C30.6264 32.6563 29.7862 33.0845 28.9625 33.3725C28.567 33.5109 28.2037 33.6075 27.9391 33.6695C27.8072 33.7004 27.7008 33.7225 27.6282 33.7366C27.5919 33.7438 27.5642 33.7489 27.5461 33.7522L27.5262 33.7556L27.522 33.7564L27.5213 33.7565C27.223 33.8058 27 34.1238 27 34.5C27 34.8763 27.223 35.1943 27.5214 35.2436L27.5262 35.2444L27.5461 35.2478C27.5642 35.2511 27.5919 35.2562 27.6282 35.2634C27.7008 35.2775 27.8072 35.2996 27.9391 35.3305C28.2037 35.3925 28.567 35.4891 28.9625 35.6275C29.7862 35.9155 30.6264 36.3437 31.0757 36.9053C31.525 37.4669 31.8676 38.5173 32.098 39.5469C32.2087 40.0413 32.286 40.4954 32.3356 40.8261C32.3603 40.9909 32.378 41.1241 32.3893 41.2147C32.395 41.26 32.3991 41.2947 32.4017 41.3174L32.4045 41.3422L32.4051 41.3476C32.4445 41.7206 32.699 42 33 42C33.301 42 33.5554 41.7212 33.5948 41.3483L33.5955 41.3422L33.5983 41.3174C33.6009 41.2947 33.605 41.26 33.6107 41.2147C33.622 41.1241 33.6397 40.9909 33.6644 40.8261C33.714 40.4954 33.7913 40.0413 33.902 39.5469C34.1324 38.5173 34.475 37.4669 34.9243 36.9053C35.3735 36.3437 36.2138 35.9155 37.0375 35.6275C37.433 35.4891 37.7963 35.3925 38.0609 35.3305C38.1928 35.2996 38.2993 35.2775 38.3718 35.2634C38.408 35.2562 38.4358 35.2511 38.4539 35.2478L38.4738 35.2444L38.4781 35.2436C38.7764 35.1944 39 34.8763 39 34.5C39 34.1237 38.777 33.8057 38.4786 33.7565L38.4738 33.7556L38.4539 33.7522C38.4358 33.7489 38.408 33.7438 38.3718 33.7366C38.2993 33.7225 38.1928 33.7004 38.0609 33.6695C37.7963 33.6075 37.433 33.5109 37.0375 33.3725C36.2138 33.0845 35.3735 32.6563 34.9243 32.0947C34.475 31.5331 34.1324 30.4827 33.902 29.4531C33.7913 28.9587 33.714 28.5046 33.6644 28.1739C33.6397 28.009 33.622 27.8759 33.6107 27.7852C33.605 27.7399 33.6009 27.7053 33.5983 27.6826L33.5955 27.6578L33.5948 27.6518ZM35.9233 34.5C35.2586 34.1946 34.5613 33.7622 34.0757 33.1553C33.5902 32.5484 33.2443 31.6767 33 30.8458C32.7557 31.6767 32.4098 32.5484 31.9243 33.1553C31.4388 33.7622 30.7414 34.1946 30.0767 34.5C30.7414 34.8054 31.4388 35.2378 31.9243 35.8447C32.4098 36.4516 32.7557 37.3233 33 38.1542C33.2443 37.3233 33.5902 36.4516 34.0757 35.8447C34.5613 35.2378 35.2586 34.8054 35.9233 34.5Z" fill="url(#paint1_linear_395_2260)"/>
<path fill-rule="evenodd" clip-rule="evenodd" d="M33.3966 0.391068C33.3702 0.167301 33.2006 0 33 0C32.7993 0 32.6297 0.16727 32.6034 0.391068L32.603 0.394668L32.6012 0.409559C32.5994 0.423158 32.5967 0.443952 32.5929 0.471146C32.5853 0.525564 32.5736 0.605416 32.5571 0.704353C32.524 0.902749 32.4725 1.17522 32.3987 1.47187C32.2451 2.08963 32.0167 2.71984 31.7172 3.0568C31.4176 3.39376 30.8575 3.65072 30.3083 3.82352C30.0446 3.90654 29.8024 3.9645 29.6261 4.00172C29.5381 4.02026 29.4672 4.03348 29.4188 4.04199C29.3946 4.04627 29.3761 4.04933 29.3641 4.05131L29.3508 4.05337L29.348 4.05383L29.3476 4.05387C29.1487 4.08348 29 4.27428 29 4.5C29 4.72577 29.1487 4.91657 29.3476 4.94613L29.3508 4.94663L29.3641 4.9487C29.3761 4.95068 29.3946 4.95374 29.4188 4.95801C29.4672 4.96652 29.5381 4.97974 29.6261 4.99828C29.8024 5.0355 30.0446 5.09346 30.3083 5.17648C30.8575 5.34928 31.4176 5.60624 31.7172 5.9432C32.0167 6.28016 32.2451 6.91038 32.3987 7.52814C32.4725 7.82478 32.524 8.09725 32.5571 8.29566C32.5736 8.39457 32.5853 8.47444 32.5929 8.52885C32.5967 8.55603 32.5994 8.57682 32.6012 8.59045L32.603 8.60535L32.6034 8.60855C32.6297 8.83233 32.7993 9 33 9C33.2007 9 33.3703 8.83274 33.3966 8.60895L33.397 8.60535L33.3988 8.59045C33.4006 8.57682 33.4033 8.55603 33.4071 8.52885C33.4147 8.47444 33.4264 8.39457 33.4429 8.29566C33.476 8.09725 33.5275 7.82478 33.6013 7.52814C33.7549 6.91038 33.9833 6.28016 34.2828 5.9432C34.5824 5.60624 35.1426 5.34928 35.6917 5.17648C35.9554 5.09346 36.1976 5.0355 36.3739 4.99828C36.4618 4.97974 36.5328 4.96652 36.5812 4.95801C36.6054 4.95374 36.6238 4.95068 36.636 4.9487L36.6492 4.94663L36.652 4.94618C36.851 4.91661 37 4.72577 37 4.5C37 4.27423 36.8513 4.08344 36.6524 4.05387L36.6492 4.05337L36.636 4.05131C36.6238 4.04933 36.6054 4.04627 36.5812 4.04199C36.5328 4.03348 36.4618 4.02026 36.3739 4.00172C36.1976 3.9645 35.9554 3.90654 35.6917 3.82352C35.1426 3.65072 34.5824 3.39376 34.2828 3.0568C33.9833 2.71984 33.7549 2.08963 33.6013 1.47187C33.5275 1.17522 33.476 0.902749 33.4429 0.704353C33.4264 0.605416 33.4147 0.525564 33.4071 0.471146C33.4033 0.443952 33.4006 0.423158 33.3988 0.409559L33.397 0.394668L33.3966 0.391068ZM34.9489 4.5C34.5058 4.31676 34.0408 4.05733 33.7172 3.6932C33.3935 3.32906 33.1629 2.80604 33 2.30749C32.8371 2.80604 32.6065 3.32906 32.2828 3.6932C31.9592 4.05733 31.4943 4.31676 31.0511 4.5C31.4943 4.68324 31.9592 4.94267 32.2828 5.30681C32.6065 5.67095 32.8371 6.19398 33 6.69249C33.1629 6.19398 33.3935 5.67095 33.7172 5.30681C34.0408 4.94267 34.5058 4.68324 34.9489 4.5Z" fill="url(#paint2_linear_395_2260)"/>
<defs>
<linearGradient id="paint0_linear_395_2260" x1="20" y1="19" x2="5.5" y2="23.5" gradientUnits="userSpaceOnUse">
<stop stop-color="#40E0D0"/>
<stop offset="1" stop-color="#068FFF"/>
</linearGradient>
<linearGradient id="paint1_linear_395_2260" x1="35.8889" y1="34.0313" x2="29.3867" y2="35.9445" gradientUnits="userSpaceOnUse">
<stop stop-color="#40E0D0"/>
<stop offset="1" stop-color="#068FFF"/>
</linearGradient>
<linearGradient id="paint2_linear_395_2260" x1="34.9259" y1="4.21875" x2="30.6707" y2="5.60999" gradientUnits="userSpaceOnUse">
<stop stop-color="#40E0D0"/>
<stop offset="1" stop-color="#068FFF"/>
</linearGradient>
</defs>
</svg>
