<svg width="53" height="65" viewBox="0 0 53 65" fill="none" xmlns="http://www.w3.org/2000/svg">
<path d="M47 19.9997C47 20.9177 46.6672 21.7981 46.075 22.4472C45.4828 23.0964 44.6796 23.4611 43.8421 23.4611H36.4737C36.4687 28.3556 34.6926 33.0481 31.5352 36.509C28.3778 39.9699 24.0968 41.9167 19.6316 41.9222H18.3261L35.4401 58.976C35.7472 59.2817 35.9964 59.6507 36.1733 60.062C36.3503 60.4733 36.4516 60.9188 36.4715 61.373C36.4913 61.8272 36.4293 62.2813 36.289 62.7092C36.1487 63.1371 35.9329 63.5306 35.6538 63.8671C35.3747 64.2035 35.0379 64.4764 34.6626 64.6702C34.2872 64.8639 33.8808 64.9747 33.4664 64.9961C33.052 65.0176 32.6378 64.9494 32.2474 64.7953C31.8571 64.6413 31.4983 64.4044 31.1915 64.0983L8.03361 41.0219C7.56203 40.552 7.23121 39.9366 7.08467 39.2567C6.93812 38.5768 6.98269 37.8642 7.21253 37.2125C7.44237 36.5609 7.84671 36.0008 8.3724 35.6057C8.8981 35.2107 9.52054 34.9993 10.1579 34.9993H19.6316C22.4224 34.9958 25.0979 33.7791 27.0713 31.616C29.0447 29.4529 30.1547 26.5202 30.1579 23.4611H10.1579C9.32037 23.4611 8.51715 23.0964 7.92493 22.4473C7.33271 21.7981 7 20.9177 7 19.9997C7 19.0816 7.33271 18.2012 7.92493 17.552C8.51715 16.9029 9.32037 16.5382 10.1579 16.5382H28.0468C27.0675 15.1054 25.7971 13.9424 24.3364 13.1413C22.8757 12.3402 21.2649 11.9231 19.6316 11.9229H10.1579C9.32037 11.9229 8.51715 11.5582 7.92493 10.9091C7.33271 10.2599 7 9.37949 7 8.46146C7 7.54342 7.33271 6.66299 7.92493 6.01384C8.51715 5.36469 9.32037 5 10.1579 5H43.8421C44.6796 5 45.4829 5.36469 46.0751 6.01384C46.6673 6.66299 47 7.54342 47 8.46146C47 9.37949 46.6673 10.2599 46.0751 10.9091C45.4829 11.5582 44.6796 11.9229 43.8421 11.9229H32.7651C33.7903 13.3214 34.6241 14.8762 35.2404 16.5382H43.8421C44.6796 16.5382 45.4828 16.9029 46.075 17.5521C46.6672 18.2012 47 19.0816 47 19.9997Z" fill="#40E0D0"/>
</svg>
