<svg width="27" height="27" viewBox="0 0 27 27" fill="none" xmlns="http://www.w3.org/2000/svg">
<g clip-path="url(#clip0_395_2239)">
<path d="M6.67786 26.916C5.11171 26.8448 4.26093 26.5842 3.69505 26.3634C2.94524 26.0715 2.41067 25.724 1.84792 25.1621C1.28517 24.6001 0.936872 24.0655 0.646497 23.3157C0.42578 22.7499 0.165146 21.8991 0.093922 20.333C0.0156537 18.6401 0 18.1322 0 13.8431C0 9.55414 0.017219 9.04698 0.0931393 7.3525C0.164364 5.78639 0.426563 4.9372 0.645714 4.36977C0.937655 3.61997 1.28595 3.08541 1.84713 2.52189C2.4091 1.95994 2.94367 1.61087 3.69427 1.3205C4.26015 1.09979 5.11092 0.839164 6.67707 0.767942C8.3708 0.690458 8.87955 0.674805 13.1671 0.674805C17.4562 0.674805 17.9634 0.692023 19.6579 0.767942C21.224 0.839164 22.0732 1.10136 22.6407 1.3205C23.3905 1.61087 23.9251 1.95994 24.4878 2.52189C25.0506 3.08385 25.3973 3.61919 25.6892 4.36898C25.91 4.93485 26.1706 5.78561 26.2418 7.35172C26.3193 9.04619 26.335 9.55336 26.335 13.8424C26.335 18.1298 26.3193 18.6385 26.2418 20.333C26.1706 21.8991 25.9084 22.7499 25.6892 23.3157C25.3973 24.0655 25.0498 24.6001 24.4878 25.1621C23.9259 25.724 23.3905 26.0715 22.6407 26.3634C22.0748 26.5842 21.224 26.8448 19.6579 26.916C17.9649 26.9935 17.4562 27.0091 13.1671 27.0091C8.87955 27.0091 8.3708 26.9943 6.67786 26.916Z" fill="url(#paint0_radial_395_2239)"/>
<path d="M6.67786 26.916C5.11171 26.8448 4.26093 26.5842 3.69505 26.3634C2.94524 26.0715 2.41067 25.724 1.84792 25.1621C1.28517 24.6001 0.936872 24.0655 0.646497 23.3157C0.42578 22.7499 0.165146 21.8991 0.093922 20.333C0.0156537 18.6401 0 18.1322 0 13.8431C0 9.55414 0.017219 9.04698 0.0931393 7.3525C0.164364 5.78639 0.426563 4.9372 0.645714 4.36977C0.937655 3.61997 1.28595 3.08541 1.84713 2.52189C2.4091 1.95994 2.94367 1.61087 3.69427 1.3205C4.26015 1.09979 5.11092 0.839164 6.67707 0.767942C8.3708 0.690458 8.87955 0.674805 13.1671 0.674805C17.4562 0.674805 17.9634 0.692023 19.6579 0.767942C21.224 0.839164 22.0732 1.10136 22.6407 1.3205C23.3905 1.61087 23.9251 1.95994 24.4878 2.52189C25.0506 3.08385 25.3973 3.61919 25.6892 4.36898C25.91 4.93485 26.1706 5.78561 26.2418 7.35172C26.3193 9.04619 26.335 9.55336 26.335 13.8424C26.335 18.1298 26.3193 18.6385 26.2418 20.333C26.1706 21.8991 25.9084 22.7499 25.6892 23.3157C25.3973 24.0655 25.0498 24.6001 24.4878 25.1621C23.9259 25.724 23.3905 26.0715 22.6407 26.3634C22.0748 26.5842 21.224 26.8448 19.6579 26.916C17.9649 26.9935 17.4562 27.0091 13.1671 27.0091C8.87955 27.0091 8.3708 26.9943 6.67786 26.916Z" fill="url(#paint1_radial_395_2239)"/>
<path d="M9.9342 13.8981C9.9342 12.0971 11.3938 10.6367 13.1949 10.6367C14.9959 10.6367 16.4563 12.0971 16.4563 13.8981C16.4563 15.6991 14.9959 17.1594 13.1949 17.1594C11.3938 17.1594 9.9342 15.6991 9.9342 13.8981ZM8.17113 13.8981C8.17113 16.6726 10.4202 18.9217 13.1949 18.9217C15.9695 18.9217 18.2186 16.6726 18.2186 13.8981C18.2186 11.1235 15.9695 8.87445 13.1949 8.87445C10.4202 8.87445 8.17113 11.1234 8.17113 13.8981ZM17.2435 8.67526C17.2434 8.90745 17.3122 9.13446 17.4411 9.32758C17.5701 9.52069 17.7533 9.67124 17.9678 9.76018C18.1823 9.84912 18.4184 9.87247 18.6461 9.82726C18.8739 9.78205 19.0831 9.67032 19.2474 9.5062C19.4116 9.34208 19.5235 9.13294 19.5689 8.90522C19.6143 8.67751 19.5912 8.44145 19.5024 8.22689C19.4136 8.01234 19.2632 7.82892 19.0702 7.69985C18.8772 7.57077 18.6502 7.50182 18.418 7.50173C18.1068 7.50188 17.8078 7.62555 17.5877 7.84558C17.3676 8.06561 17.2438 8.36402 17.2435 8.67526ZM9.24231 21.8615C8.28845 21.8181 7.77 21.6592 7.42547 21.525C6.96869 21.3472 6.64278 21.1354 6.30012 20.7932C5.95746 20.451 5.74536 20.1254 5.56831 19.6687C5.43401 19.3243 5.27512 18.8057 5.23176 17.8519C5.18433 16.8206 5.17486 16.5108 5.17486 13.8982C5.17486 11.2856 5.18511 10.9767 5.23176 9.94459C5.2752 8.99075 5.43526 8.47317 5.56831 8.12778C5.74614 7.67102 5.95793 7.34512 6.30012 7.00247C6.64231 6.65982 6.96791 6.44771 7.42547 6.27068C7.76985 6.13637 8.28845 5.97749 9.24231 5.93413C10.2736 5.8867 10.5834 5.87723 13.1949 5.87723C15.8064 5.87723 16.1165 5.88733 17.1486 5.93429C18.1024 5.97772 18.62 6.13778 18.9654 6.27083C19.4222 6.44787 19.7481 6.66044 20.0908 7.00262C20.4334 7.34481 20.6448 7.67118 20.8226 8.12794C20.9569 8.47231 21.1158 8.99091 21.1591 9.94474C21.2066 10.9768 21.216 11.2858 21.216 13.8984C21.216 16.511 21.2066 16.8199 21.1591 17.852C21.1157 18.8058 20.956 19.3243 20.8226 19.6688C20.6448 20.1256 20.433 20.4515 20.0908 20.7933C19.7486 21.1352 19.4222 21.3473 18.9654 21.5251C18.621 21.6594 18.1024 21.8183 17.1486 21.8617C16.1173 21.9091 15.8075 21.9186 13.1949 21.9186C10.5822 21.9186 10.2733 21.909 9.24231 21.8615ZM9.1613 4.17399C8.11978 4.22142 7.40809 4.38657 6.78656 4.62841C6.14327 4.87816 5.59798 5.21322 5.05346 5.75686C4.50895 6.3005 4.17475 6.84586 3.92499 7.48991C3.68314 8.11182 3.518 8.8231 3.47057 9.8646C3.42235 10.9077 3.41132 11.2412 3.41132 13.8981C3.41132 16.5549 3.42235 16.8884 3.47057 17.9315C3.518 18.9731 3.68314 19.6843 3.92499 20.3062C4.17475 20.9495 4.50903 21.4959 5.05346 22.0393C5.5979 22.5827 6.14249 22.9173 6.78656 23.1677C7.40926 23.4096 8.11978 23.5747 9.1613 23.6221C10.205 23.6696 10.538 23.6814 13.1949 23.6814C15.8518 23.6814 16.1853 23.6703 17.2284 23.6221C18.27 23.5747 18.9812 23.4096 19.6032 23.1677C20.2464 22.9173 20.7917 22.5829 21.3363 22.0393C21.8808 21.4956 22.2143 20.9495 22.4647 20.3062C22.7066 19.6843 22.8725 18.973 22.9192 17.9315C22.9666 16.8876 22.9776 16.5549 22.9776 13.8981C22.9776 11.2412 22.9666 10.9077 22.9192 9.8646C22.8717 8.82303 22.7066 8.11143 22.4647 7.48991C22.2143 6.84664 21.8799 6.30136 21.3363 5.75686C20.7926 5.21236 20.2464 4.87816 19.6039 4.62841C18.9812 4.38657 18.2699 4.22064 17.2292 4.17399C16.1859 4.12633 15.8525 4.11475 13.196 4.11475C10.5395 4.11475 10.205 4.12578 9.1613 4.17399Z" fill="white"/>
</g>
<defs>
<radialGradient id="paint0_radial_395_2239" cx="0" cy="0" r="1" gradientUnits="userSpaceOnUse" gradientTransform="translate(1.70437 26.4322) scale(33.4356 33.4348)">
<stop offset="0.09" stop-color="#FA8F21"/>
<stop offset="0.78" stop-color="#D82D7E"/>
</radialGradient>
<radialGradient id="paint1_radial_395_2239" cx="0" cy="0" r="1" gradientUnits="userSpaceOnUse" gradientTransform="translate(18.2413 25.5866) scale(29.4237 29.423)">
<stop offset="0.64" stop-color="#8C3AAA" stop-opacity="0"/>
<stop offset="1" stop-color="#8C3AAA"/>
</radialGradient>
<clipPath id="clip0_395_2239">
<rect width="26.335" height="26.3343" fill="white" transform="translate(0 0.674805)"/>
</clipPath>
</defs>
</svg>
